<?xml version="1.0" standalone="no"?>
<!DOCTYPE svg PUBLIC "-//W3C//DTD SVG 20010904//EN"
 "http://www.w3.org/TR/2001/REC-SVG-20010904/DTD/svg10.dtd">
<svg version="1.0" xmlns="http://www.w3.org/2000/svg"
 width="1280.000000pt" height="612.000000pt" viewBox="0 0 1280.000000 612.000000"
 preserveAspectRatio="xMidYMid meet">
<metadata>
Created by potrace 1.16, written by Peter Selinger 2001-2019
</metadata>
<g transform="translate(0.000000,612.000000) scale(0.100000,-0.100000)"
fill="#000000" stroke="none">
<path d="M2650 6105 c-1311 -160 -2365 -1145 -2605 -2435 -61 -330 -61 -770 0
-1100 77 -415 255 -836 498 -1180 189 -267 455 -533 727 -727 415 -295 935
-487 1441 -533 88 -8 801 -10 2486 -8 l2361 3 -98 78 c-625 496 -1085 1207
-1283 1982 -90 350 -112 538 -112 935 0 329 9 440 56 690 168 888 643 1675
1353 2240 l88 70 -2403 -1 c-1885 -1 -2427 -4 -2509 -14z m901 -1552 c81 -38
144 -100 183 -183 l31 -65 0 -1205 0 -1205 -24 -60 c-17 -42 -42 -78 -85 -121
-79 -79 -147 -107 -261 -108 -69 -1 -89 3 -145 30 -83 39 -145 101 -184 184
l-31 65 0 1215 0 1215 29 60 c49 99 146 179 250 206 64 17 169 4 237 -28z
m1500 0 c81 -38 144 -100 183 -183 l31 -65 0 -1205 0 -1205 -24 -60 c-17 -42
-42 -78 -85 -121 -79 -79 -147 -107 -261 -108 -69 -1 -89 3 -145 30 -83 39
-145 101 -184 184 l-31 65 0 1215 0 1215 29 60 c49 99 146 179 250 206 64 17
169 4 237 -28z"/>
<path d="M9450 6105 c-551 -67 -1038 -267 -1495 -614 -126 -96 -419 -386 -515
-511 -340 -443 -534 -897 -616 -1444 -21 -137 -30 -539 -15 -691 118 -1245
991 -2289 2188 -2619 298 -82 546 -111 886 -103 377 9 671 67 1010 199 388
151 718 368 1023 672 254 254 428 493 574 791 149 305 232 567 285 905 23 142
32 568 15 727 -88 861 -533 1634 -1235 2143 -407 295 -900 485 -1411 545 -157
18 -543 18 -694 0z m600 -1511 c200 -32 446 -135 623 -261 104 -74 266 -236
340 -340 427 -600 359 -1410 -162 -1928 -211 -210 -462 -346 -761 -411 -122
-27 -458 -27 -580 0 -439 96 -795 356 -1016 743 -60 106 -120 263 -152 397
-22 96 -26 134 -26 281 -1 164 0 172 26 227 35 76 104 142 186 181 64 30 73
31 207 33 155 2 218 15 318 65 156 78 265 204 323 374 23 69 27 98 29 211 3
150 8 181 42 247 49 99 157 177 271 197 59 11 209 3 332 -16z"/>
<path d="M10077 3722 c-93 -284 -294 -546 -554 -721 -85 -57 -243 -132 -336
-161 -61 -19 -76 -27 -72 -39 36 -95 196 -270 305 -334 109 -63 206 -89 351
-95 153 -5 248 15 379 80 69 34 103 60 181 138 82 82 102 108 141 190 26 52
54 126 63 165 24 99 22 267 -4 368 -51 195 -191 376 -362 467 -31 16 -58 30
-60 30 -2 0 -17 -39 -32 -88z"/>
</g>
</svg>
