<?xml version="1.0" standalone="no"?>
<!DOCTYPE svg PUBLIC "-//W3C//DTD SVG 20010904//EN"
 "http://www.w3.org/TR/2001/REC-SVG-20010904/DTD/svg10.dtd">
<svg version="1.0" xmlns="http://www.w3.org/2000/svg"
 width="1273.000000pt" height="716.000000pt" viewBox="0 0 1273.000000 716.000000"
 preserveAspectRatio="xMidYMid meet">
<metadata>
Created by potrace 1.16, written by Peter Selinger 2001-2019
</metadata>
<g transform="translate(0.000000,716.000000) scale(0.100000,-0.100000)"
fill="#000000" stroke="none">
<path d="M2620 6419 c-409 -44 -827 -179 -1175 -377 -239 -137 -427 -282 -641
-496 -254 -255 -422 -489 -574 -801 -88 -181 -146 -333 -196 -514 l-34 -124 0
-677 0 -677 34 -124 c203 -740 690 -1378 1356 -1779 371 -224 816 -370 1253
-411 190 -17 566 -7 742 20 512 81 984 286 1405 611 123 95 406 378 500 500
339 441 529 886 615 1440 23 143 31 531 16 697 -90 960 -628 1809 -1462 2308
-335 200 -686 324 -1109 390 -124 20 -596 29 -730 14z m425 -1134 c110 -29
198 -104 247 -211 22 -46 23 -65 28 -318 l5 -269 58 -25 58 -25 98 96 c130
128 179 152 311 152 82 0 103 -4 150 -26 84 -40 135 -90 175 -172 44 -91 53
-161 31 -247 -22 -85 -44 -119 -150 -228 l-90 -92 21 -58 20 -57 264 -5 c214
-5 272 -9 307 -22 208 -82 301 -314 204 -510 -38 -78 -100 -138 -182 -177 -54
-26 -58 -26 -321 -29 l-267 -3 -21 -51 c-12 -28 -21 -55 -21 -61 0 -6 42 -53
93 -106 99 -103 130 -153 149 -245 30 -151 -55 -317 -200 -388 -62 -31 -74
-33 -167 -33 -132 0 -168 18 -301 148 l-102 98 -58 -25 -59 -24 -5 -269 c-5
-263 -6 -269 -31 -323 -131 -279 -513 -292 -657 -22 -42 79 -52 152 -52 402
l0 215 -57 22 -57 23 -96 -94 c-54 -54 -118 -106 -150 -122 -50 -27 -64 -29
-160 -29 -101 0 -108 1 -168 34 -75 41 -135 105 -170 181 -22 46 -26 69 -26
145 0 127 25 178 149 305 52 53 95 100 95 105 0 5 -10 33 -22 62 l-21 52 -266
3 c-264 3 -266 3 -323 30 -76 35 -138 95 -179 170 -33 60 -34 68 -34 168 0 95
3 110 27 157 36 68 78 114 136 151 86 55 130 62 397 62 l242 0 22 51 c11 29
21 56 21 62 0 6 -43 54 -95 107 -108 110 -142 172 -152 272 -15 162 87 319
244 378 46 17 74 21 138 18 117 -5 174 -35 295 -153 l97 -96 56 22 57 22 0
216 c0 119 5 245 10 280 25 150 128 267 270 305 72 19 113 19 185 1z"/>
<path d="M2839 3791 c-325 -104 -357 -552 -51 -703 62 -31 73 -33 167 -33 86
1 108 5 155 27 81 37 144 98 182 176 29 57 33 79 36 157 3 73 0 101 -18 148
-71 189 -278 290 -471 228z"/>
<path d="M5171 6426 c2 -2 50 -40 105 -84 790 -632 1282 -1549 1380 -2572 30
-305 11 -714 -47 -1025 -164 -885 -643 -1680 -1353 -2245 l-89 -70 2444 3
2444 3 135 23 c544 92 1013 301 1430 635 106 85 318 294 412 406 381 454 614
996 683 1590 19 163 19 517 0 680 -110 937 -635 1751 -1445 2240 -288 174
-653 312 -990 375 -248 46 -192 45 -2724 45 -1314 0 -2387 -2 -2385 -4z m2784
-1527 c71 -26 143 -84 183 -145 64 -101 62 -50 62 -1324 0 -1286 3 -1226 -68
-1330 -45 -66 -103 -111 -179 -140 -77 -29 -204 -25 -276 10 -75 35 -142 103
-179 178 l-33 67 0 1215 0 1215 26 56 c46 97 125 169 227 205 58 21 172 17
237 -7z m1500 0 c71 -26 143 -84 183 -145 64 -101 62 -50 62 -1324 0 -1286 3
-1226 -68 -1330 -45 -66 -103 -111 -179 -140 -77 -29 -204 -25 -276 10 -75 35
-142 103 -179 178 l-33 67 0 1215 0 1215 26 56 c46 97 125 169 227 205 58 21
172 17 237 -7z"/>
<path d="M219 138 c-17 -16 -51 -20 -149 -15 -25 1 -51 6 -58 10 -8 5 -12 3
-12 -7 0 -8 6 -17 13 -20 9 -5 9 -7 0 -12 -7 -3 -13 -12 -13 -20 0 -9 4 -12
10 -9 5 3 10 1 10 -4 0 -6 7 -11 15 -11 9 0 15 9 15 25 0 31 17 33 22 3 3 -23
5 -23 161 -24 l157 -2 0 49 c0 27 -4 49 -10 49 -5 0 -10 -7 -10 -16 0 -8 -5
-12 -10 -9 -6 4 -17 2 -25 -5 -10 -9 -19 -9 -35 0 -16 9 -25 8 -36 0 -11 -10
-15 -8 -22 10 -7 19 -10 20 -23 8z"/>
<path d="M620 100 c0 -27 5 -50 10 -50 6 0 10 7 10 15 0 19 16 19 24 0 4 -12
22 -15 88 -13 81 3 83 4 82 27 -1 22 0 23 13 6 16 -22 17 -35 3 -35 -5 0 -10
-7 -10 -15 0 -8 -4 -15 -10 -15 -5 0 -10 -4 -10 -10 0 -5 19 -10 43 -10 38 1
40 2 24 14 -10 8 -14 17 -8 20 5 3 12 20 16 36 8 36 24 41 17 5 -4 -23 -1 -25
32 -25 33 0 36 2 36 29 0 16 -6 33 -13 39 -19 16 -85 3 -90 -17 -4 -13 -5 -13
-6 2 -1 11 -8 17 -18 16 -10 -1 -26 1 -35 5 -9 4 -25 3 -35 -3 -11 -5 -25 -6
-33 -1 -18 11 -50 -6 -50 -27 0 -13 -3 -14 -12 -5 -10 10 -10 17 0 32 6 11 12
22 12 25 0 11 -24 4 -42 -12 -17 -15 -18 -15 -18 0 0 10 -4 17 -10 17 -5 0
-10 -22 -10 -50z"/>
<path d="M1024 136 c-3 -9 -4 -22 -1 -30 3 -8 1 -17 -6 -19 -9 -3 -8 -8 2 -20
16 -20 52 -22 69 -5 9 9 12 9 12 0 0 -8 18 -12 49 -12 46 0 50 2 54 28 l4 27
2 -27 c0 -17 7 -28 15 -28 8 0 17 12 19 28 l4 27 2 -27 c0 -16 6 -28 12 -28 6
0 9 16 7 38 -3 35 -5 37 -35 36 -61 -2 -63 -3 -64 -31 -2 -27 -2 -27 -6 -3 -6
34 -17 43 -43 35 -13 -4 -19 -12 -16 -21 3 -8 1 -14 -4 -14 -5 0 -10 12 -12
28 -2 21 -9 28 -31 30 -18 2 -29 -2 -33 -12z"/>
</g>
</svg>
